<svg xmlns="http://www.w3.org/2000/svg" xmlns:xlink="http://www.w3.org/1999/xlink" width="60" height="20" viewBox="0 0 60 20"><defs><style>.a{fill:#a6a7aa;}.b{fill:url(#a);}.c{fill:url(#b);}.d{fill:url(#c);}.e{fill:url(#d);}.f{fill:url(#e);}.g{fill:url(#f);}.h{fill:url(#g);}</style><linearGradient id="a" x1="-0.258" y1="0.512" x2="6.729" y2="0.403" gradientUnits="objectBoundingBox"><stop offset="0" stop-color="#231f20"/><stop offset="0.142" stop-color="#282425"/><stop offset="0.33" stop-color="#383536"/><stop offset="0.544" stop-color="#525051"/><stop offset="0.774" stop-color="#767677"/><stop offset="1" stop-color="#a0a2a4"/></linearGradient><linearGradient id="b" x1="-1.377" y1="0.529" x2="5.979" y2="0.422" xlink:href="#a"/><linearGradient id="c" x1="-1.557" y1="0.546" x2="3.082" y2="0.437" xlink:href="#a"/><linearGradient id="d" x1="-4.392" y1="0.566" x2="3.502" y2="0.459" xlink:href="#a"/><linearGradient id="e" x1="-8.705" y1="0.583" x2="3.351" y2="0.474" xlink:href="#a"/><linearGradient id="f" x1="-5.522" y1="0.569" x2="1.348" y2="0.493" xlink:href="#a"/><linearGradient id="g" x1="-8.668" y1="0.61" x2="0.206" y2="0.503" xlink:href="#a"/></defs><g transform="translate(-99.171 -282.175)"><g transform="translate(138.084 298.856)"><path class="a" d="M181.071,319.109l-.1.414H180.7l.654-2.738h.279l-.26,1.081a.8.8,0,0,1,.621-.36c.357,0,.628.292.628.786a1.5,1.5,0,0,1-.379,1.013.829.829,0,0,1-.58.258A.612.612,0,0,1,181.071,319.109Zm.963.031a1.23,1.23,0,0,0,.3-.827c0-.342-.16-.561-.431-.561a.613.613,0,0,0-.435.2,1.211,1.211,0,0,0-.3.8c0,.334.19.565.469.565A.571.571,0,0,0,182.034,319.139Z" transform="translate(-180.699 -316.784)"/><path class="a" d="M184.689,318.265h.287l.178,1.635.889-1.635h.305l-1.145,2.026c-.227.391-.413.535-.659.535a.579.579,0,0,1-.372-.136l.141-.209a.391.391,0,0,0,.238.095c.13,0,.238-.079.39-.33Z" transform="translate(-182.394 -317.507)"/><path class="a" d="M190.693,316.947h.279l.439,1.433,1.116-1.433h.323l-.635,2.655h-.287l.509-2.147-1.126,1.43H191.3l-.447-1.426-.513,2.143h-.279Z" transform="translate(-185.266 -316.864)"/><path class="a" d="M195.94,317.571h.274l-.472,1.98h-.279Zm.16-.728h.308l-.081.326h-.309Z" transform="translate(-187.904 -316.813)"/><path class="a" d="M197.593,318.229h.275l-.067.3a.736.736,0,0,1,.584-.334.493.493,0,0,1,.517.539,1.618,1.618,0,0,1-.049.33l-.267,1.149h-.279l.275-1.161a1.312,1.312,0,0,0,.034-.258.318.318,0,0,0-.35-.346.689.689,0,0,0-.587.573l-.283,1.191h-.275Z" transform="translate(-188.712 -317.471)"/><path class="a" d="M201.247,319.741a1.646,1.646,0,0,1,.048-.33l.272-1.145h.275l-.275,1.157a1.348,1.348,0,0,0-.034.258.32.32,0,0,0,.35.349.678.678,0,0,0,.584-.577l.286-1.187h.275l-.472,1.98h-.275l.071-.3a.749.749,0,0,1-.584.334A.494.494,0,0,1,201.247,319.741Z" transform="translate(-190.725 -317.507)"/><path class="a" d="M205.236,319.373a.981.981,0,0,1,.03-.213l.283-1.191h-.238l.059-.25h.238l.138-.572h.275l-.137.572h.491l-.059.25h-.491l-.286,1.214a.484.484,0,0,0-.015.121c0,.11.078.167.216.167a.579.579,0,0,0,.23-.053l-.059.254a.634.634,0,0,1-.272.053C205.4,319.726,205.236,319.6,205.236,319.373Z" transform="translate(-192.672 -316.961)"/><path class="a" d="M207.845,318.234h.275l-.1.425a.846.846,0,0,1,.762-.455l-.078.3h-.019a.859.859,0,0,0-.811.755l-.227.956h-.275Z" transform="translate(-193.715 -317.476)"/><path class="a" d="M209.792,319.727a.729.729,0,0,1,.2-.513.8.8,0,0,1,.58-.216,1.742,1.742,0,0,1,.558.1l.011-.057a1.113,1.113,0,0,0,.03-.224c0-.213-.134-.349-.431-.349a1.1,1.1,0,0,0-.457.1l-.067-.239a1.418,1.418,0,0,1,.562-.114c.428,0,.666.208.666.546a1.556,1.556,0,0,1-.045.319l-.268,1.138h-.271l.07-.284a.754.754,0,0,1-.6.322A.506.506,0,0,1,209.792,319.727Zm1.242-.235.049-.2a1.493,1.493,0,0,0-.495-.088.515.515,0,0,0-.379.144.5.5,0,0,0-.138.353.324.324,0,0,0,.346.345A.687.687,0,0,0,211.034,319.492Z" transform="translate(-194.895 -317.485)"/><path class="a" d="M214.893,319.2a.81.81,0,0,1-.621.356c-.361,0-.628-.3-.628-.785a1.486,1.486,0,0,1,.375-1.013.826.826,0,0,1,.58-.258.617.617,0,0,1,.591.452l.279-1.172h.279l-.658,2.738h-.275Zm-.1-.1a1.191,1.191,0,0,0,.3-.792.5.5,0,0,0-.469-.565.559.559,0,0,0-.4.178,1.21,1.21,0,0,0-.3.819c0,.345.164.565.432.565A.611.611,0,0,0,214.8,319.109Z" transform="translate(-196.774 -316.784)"/><path class="a" d="M218.016,319.322c0,.038,0,.076,0,.11,0,.357.19.573.483.573a.755.755,0,0,0,.491-.189l.13.2a.973.973,0,0,1-.628.235.73.73,0,0,1-.748-.812,1.427,1.427,0,0,1,.375-.967.856.856,0,0,1,.621-.277.635.635,0,0,1,.636.709,1.4,1.4,0,0,1-.071.421Zm.037-.212h1.026a.725.725,0,0,0,.026-.213c0-.258-.122-.466-.387-.466a.6.6,0,0,0-.409.186A1.089,1.089,0,0,0,218.053,319.109Z" transform="translate(-198.774 -317.471)"/></g><g transform="translate(99.171 282.175)"><path class="b" d="M107.713,301.852a.489.489,0,0,1-.48.5.558.558,0,0,1-.481-.25l-3.321-4.636-3.341,4.636a.448.448,0,0,1-.439.25.49.49,0,0,1-.481-.5.672.672,0,0,1,.167-.438l3.4-4.72-3.154-4.3a.647.647,0,0,1-.167-.438.453.453,0,0,1,.46-.48.577.577,0,0,1,.48.272l3.028,4.176,3.049-4.2a.545.545,0,0,1,.459-.25.482.482,0,0,1,.5.5.744.744,0,0,1-.166.418l-3.154,4.323,3.425,4.637A.924.924,0,0,1,107.713,301.852Z" transform="translate(-99.171 -287.752)"/><path class="c" d="M123.543,297.284H117.8c.147,2.882,1.985,4.093,4.094,4.093a8.344,8.344,0,0,0,2.109-.334.444.444,0,0,1,.48.459.481.481,0,0,1-.334.459,5.628,5.628,0,0,1-2.36.4c-3.008,0-5.1-1.922-5.1-5.346,0-3.571,1.879-5.785,4.532-5.785,2.736,0,3.779,2.131,3.55,5.012C124.754,296.991,124.4,297.284,123.543,297.284Zm-2.486-5.1a2.948,2.948,0,0,0-1.817.542,4.985,4.985,0,0,0-1.461,3.676h5.91C123.961,293.63,123.062,292.189,121.057,292.189Z" transform="translate(-107.673 -287.632)"/><path class="d" d="M146.873,291.974a1.824,1.824,0,0,1-.1.481l-2.506,9.565a.761.761,0,0,1-.69.333.7.7,0,0,1-.772-.626l-2.361-8.813H140.4l-2.547,9.105a.846.846,0,0,1-.69.333.726.726,0,0,1-.793-.626l-2.277-9.314a2.4,2.4,0,0,1-.083-.418.521.521,0,0,1,.543-.522.547.547,0,0,1,.564.5L137.163,301h.084l2.505-9.126a.8.8,0,0,1,.731-.4.7.7,0,0,1,.71.585l2.36,8.938h.062l2.172-9.042a.559.559,0,0,1,.564-.48A.5.5,0,0,1,146.873,291.974Z" transform="translate(-117.182 -287.752)"/><path class="e" d="M166.77,302.233a.5.5,0,0,1-.5-.564v-1.315a3.592,3.592,0,0,1-3.3,2,3.053,3.053,0,0,1-3.237-3.07c0-2.486,1.754-3.718,6.495-3.2v-1.086a2.983,2.983,0,0,0-.585-2.214,3.19,3.19,0,0,0-1.963-.543,10.565,10.565,0,0,0-2.569.459.478.478,0,0,1-.48-.5.57.57,0,0,1,.418-.521,6.737,6.737,0,0,1,2.484-.46c2.485,0,3.759,1.066,3.759,3.509v6.871C167.291,301.962,167.1,302.233,166.77,302.233Zm-5.367-4.782a2.334,2.334,0,0,0,1.733,3.947c1.942,0,3.091-1.566,3.091-3.467v-.919C163.491,296.657,161.946,296.971,161.4,297.451Z" transform="translate(-130.311 -287.632)"/><path class="f" d="M183.392,292.375a4.186,4.186,0,0,0-3.237,1.817v7.475a.556.556,0,1,1-1.107,0v-9.69a.566.566,0,0,1,.564-.585.53.53,0,0,1,.522.522v1.232a4.426,4.426,0,0,1,3.069-1.838,1.72,1.72,0,0,1,.418.042.477.477,0,0,1,.376.5C184,292.166,183.789,292.375,183.392,292.375Z" transform="translate(-140.149 -287.673)"/><path class="g" d="M197.181,282.721v13.5a.534.534,0,0,1-.542.565.5.5,0,0,1-.522-.506V294.97A3.737,3.737,0,0,1,192.8,296.9c-2.819,0-4.3-2.322-4.3-4.76,0-3.92,2.318-5.617,4.782-5.617a4.914,4.914,0,0,1,2.8.839v-4.643a.535.535,0,0,1,.564-.546A.518.518,0,0,1,197.181,282.721Zm-1.106,5.891a4.23,4.23,0,0,0-2.945-1.151,3.806,3.806,0,0,0-2.068.6,4.861,4.861,0,0,0-1.483,3.94c0,2.048,1.211,3.94,3.383,3.94a3.1,3.1,0,0,0,3.112-3.121Z" transform="translate(-145.589 -282.175)"/><path class="h" d="M211.839,302.358a6.986,6.986,0,0,1-2.714-.522.6.6,0,0,1-.376-.522.484.484,0,0,1,.522-.48,9.221,9.221,0,0,0,2.777.543,3.182,3.182,0,0,0,1.691-.376,1.612,1.612,0,0,0,.71-1.4c0-.711-.355-1.4-2.693-2.548-1.963-.961-2.819-1.733-2.819-3.133,0-1.65,1.294-2.694,3.32-2.694a6.136,6.136,0,0,1,2.339.439.539.539,0,0,1,.375.522.494.494,0,0,1-.5.5,11.568,11.568,0,0,0-2.339-.481,2.937,2.937,0,0,0-1.461.293,1.452,1.452,0,0,0-.731,1.294c0,.981.773,1.524,2.59,2.443,2.276,1.149,2.944,1.942,2.944,3.216C215.472,301.335,214.011,302.358,211.839,302.358Z" transform="translate(-155.472 -287.632)"/></g></g></svg>